<svg xmlns="http://www.w3.org/2000/svg" viewBox="2699 2849 14.248 9.499">
  <defs>
    <style>
      .cls-1 {
        fill: gray;
      }
    </style>
  </defs>
  <path id="eye-regular" class="cls-1" d="M7.125,65.979a2.744,2.744,0,0,0-.773.124,1.37,1.37,0,0,1,.179.668,1.385,1.385,0,0,1-1.385,1.385,1.37,1.37,0,0,1-.668-.179,2.763,2.763,0,1,0,2.647-2Zm7.038,2.409A7.934,7.934,0,0,0,7.125,64,7.935,7.935,0,0,0,.087,68.388a.8.8,0,0,0,0,.722A7.934,7.934,0,0,0,7.125,73.5a7.935,7.935,0,0,0,7.038-4.388.8.8,0,0,0,0-.722ZM7.125,72.311a6.729,6.729,0,0,1-5.886-3.562,6.729,6.729,0,0,1,5.886-3.562,6.729,6.729,0,0,1,5.886,3.562A6.728,6.728,0,0,1,7.125,72.311Z" transform="translate(2699 2785)"/>
</svg>
